SplineFontDB: 3.2
FontName: JosipaPejkovic
FullName: JosipaPejkovic
FamilyName: JosipaPejkovic
Weight: Regular
Copyright: Copyright (c) 2024, Korisnik
UComments: "2024-3-19: Created with FontForge (http://fontforge.org)"
Version: 001.000
ItalicAngle: 0
UnderlinePosition: -100
UnderlineWidth: 50
Ascent: 800
Descent: 200
InvalidEm: 0
LayerCount: 3
Layer: 0 0 "Stra+AX4A-nji" 1
Layer: 1 0 "Prednji" 0
Layer: 2 0 "Stra+AX4A-nji 2" 1
XUID: [1021 644 1599541746 15082]
StyleMap: 0x0000
FSType: 0
OS2Version: 0
OS2_WeightWidthSlopeOnly: 0
OS2_UseTypoMetrics: 1
CreationTime: 1710883203
ModificationTime: 1710970939
OS2TypoAscent: 0
OS2TypoAOffset: 1
OS2TypoDescent: 0
OS2TypoDOffset: 1
OS2TypoLinegap: 90
OS2WinAscent: 0
OS2WinAOffset: 1
OS2WinDescent: 0
OS2WinDOffset: 1
HheadAscent: 0
HheadAOffset: 1
HheadDescent: 0
HheadDOffset: 1
MarkAttachClasses: 1
DEI: 91125
Encoding: iso8859-2
UnicodeInterp: none
NameList: AGL For New Fonts
DisplaySize: -48
AntiAlias: 1
FitToEm: 0
WinInfo: 0 38 13
BeginPrivate: 0
EndPrivate
BeginChars: 256 28

StartChar: A
Encoding: 65 65 0
Width: 381
Flags: HW
LayerCount: 3
Fore
SplineSet
229.290039062 659 m 1024
90.2900390625 335 m 1
 209.290039062 350 l 1
 178.290039062 617 l 1
 116.290039062 638 l 1
 90.2900390625 335 l 1
238.290039062 59 m 1024
-39.7099609375 27 m 1
 73.2900390625 734 l 1
 -32.7099609375 810 171.229492188 713.044921875 221.290039062 719 c 1
 221.290039062 719 352.999023438 74.296875 355.290039062 83 c 4
 357.731445312 92.2724609375 200.024414062 77.5126953125 231.290039062 87 c 0
 237.03125 88.7421875 216.290039062 249 216.290039062 249 c 1
 92.2900390625 222 l 1
 80.2900390625 75 l 1
 43.4609375 61.85546875 -81.076171875 -52.291015625 -39.7099609375 27 c 1
EndSplineSet
Validated: 524325
EndChar

StartChar: j
Encoding: 106 106 1
Width: 285
Flags: HW
LayerCount: 3
Fore
SplineSet
313.806640625 436 m 1024
142.806640625 475 m 1
 163.806640625 423 l 1
 244.806640625 424 l 1
 222.806640625 473 l 1
 142.806640625 475 l 1
197.806640625 335 m 1024
752.806640625 -78 m 1024
146.806640625 393 m 1
 253.806640625 395 l 1
 253.806640625 395 256.806640625 -2 256.806640625 0 c 0
 256.806640625 2 254.806640625 -79 254.806640625 -79 c 1
 251.48046875 -96.78515625 246.806640625 -115 238.806640625 -131 c 1
 206.806640625 -175 195.806640625 -172 185.806640625 -177 c 1
 169.806640625 -183 175.38671875 -180.12890625 143.806640625 -182 c 1
 117.739257812 -181.1953125 95.3740234375 -181.809570312 84.806640625 -176 c 1
 63.806640625 -170 47.806640625 -160 40.806640625 -148 c 1
 27.806640625 -128 27.806640625 -111 21.806640625 -83 c 1
 20.806640625 -30 l 1
 20.806640625 -30 -11.193359375 2 -11.193359375 0 c 0
 -11.193359375 -2 74.806640625 0 78.806640625 0 c 0
 78.806640625 -44 l 1
 79.806640625 -61 77.806640625 -100 96.806640625 -113 c 1
 122.194335938 -125.543945312 131.166992188 -118.275390625 144.806640625 -120 c 1
 191.806640625 -118 190.108398438 -50.107421875 188.806640625 -53 c 1
 190.806640625 -57 190.922851562 -24.9619140625 191.806640625 -12 c 1
 191.806640625 86 l 1
 195.806640625 205 l 1
 197.806640625 335 l 1
 153.806640625 328 189.1796875 334.838867188 197.806640625 335 c 1
 146.806640625 393 l 1
EndSplineSet
Validated: 524325
EndChar

StartChar: a
Encoding: 97 97 2
Width: 258
Flags: HW
LayerCount: 3
Fore
SplineSet
178 62 m 1
 178 54.6611328125 77.7060663943 50.8350685214 67 52 c 0
 43.1357421875 54.5966796875 47.51657836 130.750528944 62 130 c 0
 63.5830078125 129.91796875 107 145 176 137 c 1
 177.66796875 116.762695312 179.379882812 87.2373046875 178 62 c 1
11 266 m 1
 62 230 l 1
 64 259 l 1
 64 259 64.8141233363 309.418483331 64 310 c 0
 57 315 176.333984375 315.305664062 189 310 c 0
 190.673828125 309.298828125 195.021213575 233.997105762 189 188 c 0
 188.905273438 187.276367188 30.79296875 189.086914062 23 181 c 1
 0.6123046875 172.763671875 7.11825415028 8.90169584616 25 4 c 0
 61.1494140625 -5.9091796875 171.671875 4.712890625 184 24 c 1
 176 0 l 1
 252 1 l 0
 230 28 242 360 242 360 c 1
 188.336914062 357.299804688 12.0869140625 370.21875 13 350 c 1
 8.708984375 349.916015625 9.595703125 321.474609375 10 312 c 1
 11 266 l 1
EndSplineSet
Validated: 524329
EndChar

StartChar: J
Encoding: 74 74 3
Width: 369
Flags: HW
LayerCount: 3
Fore
SplineSet
27.3876953125 775 m 1
 363.387695312 781 l 1
 344.387695312 576 361.931640625 227.901367188 352.387695312 194 c 1
 353.209960938 197.07421875 330.387695312 16 176.387695312 0 c 1
 144.59375 3.4541015625 76.3857421875 52.9990234375 48.3876953125 118 c 0
 47.72265625 119.543945312 19.1923828125 197 14.3876953125 220 c 1
 102.387695312 218 l 1
 111.16015625 168.46484375 152.844726562 111.782226562 186.387695312 112 c 0
 212.387695312 112.168945312 274.387695312 188 262.387695312 220 c 1
 270.387695312 398 270.387695312 532 264.387695312 706 c 1
 80.3876953125 708 l 1
 30.3876953125 601 l 1
 27.3876953125 775 l 1
EndSplineSet
Validated: 524325
EndChar

StartChar: O
Encoding: 79 79 4
Width: 691
Flags: HW
LayerCount: 3
Fore
SplineSet
320.741210938 680 m 1
 134.741210938 638 90.7412109375 482 106.741210938 422 c 1
 92.7412109375 356 178.741210938 148 358.741210938 140 c 1
 570.741210938 180 590.741210938 374 584.741210938 410 c 1
 594.741210938 514 514.741210938 670 320.741210938 680 c 1
326.741210938 764 m 1
 537.071289062 766.430664062 692.741210938 558 674.741210938 410 c 1
 692.741210938 138 450.741210938 44 370.741210938 42 c 0
 168.567382812 36.9453125 0.7412109375 202 11.3544921875 438 c 1
 48.7412109375 670 170.741210938 760 326.741210938 764 c 1
EndSplineSet
Validated: 524321
EndChar

StartChar: o
Encoding: 111 111 5
Width: 432
Flags: HW
LayerCount: 3
Fore
SplineSet
209 328 m 5
 157 330 84 272 71 210 c 5
 83 93 173 55 226 59 c 5
 289 60 360.25 153.37890625 355 212 c 4
 349 279 265 335 209 328 c 5
198 396 m 5
 342 388 411 303 425 218 c 5
 425.291015625 129.420898438 387.309570312 17.509765625 222 5 c 4
 173.877929688 1.3583984375 -3 17 8 213 c 5
 13 253 17 356 198 396 c 5
EndSplineSet
Validated: 524321
EndChar

StartChar: S
Encoding: 83 83 6
Width: 524
Flags: HW
LayerCount: 3
Fore
SplineSet
428.515625 761 m 5
 431.946289062 768.233398438 64.3994140625 755.974609375 46.515625 730 c 4
 37.9716796875 717.590820312 24.4169921875 428.791015625 33.515625 448 c 5
 49.3564453125 426.930664062 279.515625 460 377.515625 447 c 5
 394.515625 370 399.515625 310 397.515625 268 c 5
 286.500976562 237.634765625 59.6708984375 203.654296875 35.515625 176 c 5
 20.2333984375 121.034179688 32.515625 65 41.515625 26 c 5
 98.9052734375 27.3798828125 520.515625 194 507.515625 205 c 5
 521.750976562 184.336914062 481.515625 536 463.515625 531 c 5
 458.573242188 550.206054688 149.541015625 529.436523438 133.515625 529 c 4
 122.307617188 528.694335938 123.754882812 636.232421875 141.515625 646 c 5
 279.979492188 650.813476562 476.515625 661 466.515625 672 c 5
 453.866210938 698.986328125 440.893554688 774.969726562 428.515625 761 c 5
EndSplineSet
Validated: 524325
EndChar

StartChar: I
Encoding: 73 73 7
Width: 328
Flags: HW
LayerCount: 3
Fore
SplineSet
309 779 m 1
 11 781 l 1
 95 714 l 1
 97 80 l 1
 12 22 l 1
 311 21 l 1
 215 88 l 5
 218 10 214 522 215 712 c 1
 309 779 l 1
EndSplineSet
Validated: 37
EndChar

StartChar: P
Encoding: 80 80 8
Width: 484
Flags: HW
LayerCount: 3
Fore
SplineSet
372 698 m 1
 376 552 l 1
 172 504 l 1
 174 686 l 1
 239.217773438 690.721679688 377.174804688 698.375 372 698 c 1
15 14 m 1
 236 15 l 1
 173 57 l 1
 176 413 l 1
 457 491 l 5
 448 761 l 1
 75 752 l 1
 71 60 l 1
 15 14 l 1
EndSplineSet
Validated: 524325
EndChar

StartChar: s
Encoding: 115 115 9
Width: 351
Flags: HW
LayerCount: 3
Fore
SplineSet
338 437 m 5
 312 441 55.8298611084 441.945997705 24 424 c 5
 13 409 12.0271214131 267.519644284 28 260 c 5
 95 239 181.533849666 241.881541473 247 216 c 5
 256 201 260.570162459 131.010624017 252 125 c 5
 248 112 42.3522741053 119.67485031 24 102 c 5
 21.2217771566 101.999636719 0.996751252218 30.3960092223 10 29 c 4
 11.6337802258 28.7466723039 328.058595776 49.8327698647 318 71 c 5
 320 117 319.20508733 249.882714408 305 263 c 5
 282.997795115 283.140618236 89 292 87 307 c 5
 87 373 l 5
 100.261446916 381.529504466 285 362 309 368 c 5
 323 366 348.134534947 427.461526862 338 437 c 5
EndSplineSet
Validated: 524329
EndChar

StartChar: i
Encoding: 105 105 10
Width: 236
Flags: HW
LayerCount: 3
Fore
SplineSet
56 452 m 5
 52.390625 451.418945312 68.7138671875 395.802734375 70 394 c 1
 158 393 l 1
 158 393 150 451 148 451 c 0
 146 451 98 451 56 452 c 5
8 360 m 1
 218 362 l 1
 158 323 l 1
 154 48 l 1
 222 12 l 1
 13 12 l 1
 72 46 l 1
 72 323 l 1
 8 360 l 1
EndSplineSet
Validated: 524329
EndChar

StartChar: p
Encoding: 112 112 11
Width: 354
Flags: HW
LayerCount: 3
Fore
SplineSet
139 390 m 9
 274 388 l 1
 277 312 l 25
 277 312 135 278 136 278 c 0
 137 278 139 390 139 390 c 9
66 451 m 1
 62 0 l 1
 9 -53 l 1
 9 -53 204 -55 204 -51 c 0
 204 -47 139 0 139 0 c 1
 139 -4.4111328125 139 150.115234375 139 213 c 1
 336 281 l 1
 333 428 l 1
 66 451 l 1
EndSplineSet
Validated: 524325
EndChar

StartChar: E
Encoding: 69 69 12
Width: 506
Flags: HW
LayerCount: 3
Fore
SplineSet
26 778 m 1
 29 34 l 1
 478 34 l 1
 476 131 l 1
 108 127 l 1
 107 376 l 1
 406 375 l 1
 406 474 l 1
 105 476 l 1
 105 476 93.891419184 704.652189225 104 706 c 4
 119 708 428 700 428 700 c 1
 478 592 l 1
 478 592 474 770 474 772 c 0
 474 774 180 776 26 778 c 1
EndSplineSet
Validated: 524329
EndChar

StartChar: e
Encoding: 101 101 13
Width: 334
Flags: HW
LayerCount: 3
Fore
SplineSet
79 261 m 1
 122.583984375 258.237304688 268.206054688 253.908203125 269 264 c 1
 277.475585938 293.333007812 277 338 264 354 c 1
 272.657226562 368.196289062 85.484375 367.263671875 77 350 c 0
 69.8017578125 335.352539062 66 262 79 261 c 1
300 59 m 1
 307.956054688 61.21875 321.000976562 13.9990234375 308 0 c 0
 302.555664062 -5.8623046875 56.2001953125 5.0556640625 50 0 c 0
 39.9736328125 -8.17578125 8.6767578125 43.7978515625 15 54 c 1
 8 122 12 235 10 303 c 1
 14 340 1 366 26 384 c 1
 46 394 208 408 286 392 c 1
 310.666992188 378.000976562 322.333007812 353.000976562 323 315 c 1
 321.267578125 287.666992188 320 241 310 230 c 1
 261 220 190 224 190 224 c 1
 189.95703125 223.788085938 72.7548828125 221.829101562 68 224 c 1
 69 173 61 105 78 68 c 1
 156.607421875 59.91796875 286 73 300 59 c 1
EndSplineSet
Validated: 524321
EndChar

StartChar: K
Encoding: 75 75 14
Width: 470
Flags: HW
LayerCount: 3
Fore
SplineSet
155.418945312 439 m 0
 155.418945312 441 165.418945312 732 165.418945312 732 c 1
 165.418945312 732 243.418945312 772 243.418945312 774 c 0
 243.418945312 776 14.4189453125 783 14.4189453125 783 c 1
 86.4189453125 732 l 1
 86.4189453125 732 83.55859375 64.8935546875 77.4189453125 57 c 0
 70.4189453125 48 39.4189453125 23 15.4189453125 0 c 1
 15.4189453125 0 233.418945312 -4 233.418945312 0 c 0
 233.418945312 4 159.418945312 61 159.418945312 61 c 1
 158.418945312 330 l 1
 158.418945312 330 424.418945312 -2 424.418945312 0 c 0
 424.418945312 2 589.418945312 -1 589.418945312 0 c 0
 589.418945312 1 471.418945312 72 471.418945312 72 c 1
 225.418945312 394 l 1
 225.418945312 394 463.418945312 723 463.418945312 722 c 0
 463.418945312 721 587.418945312 781 587.418945312 781 c 1
 415.418945312 780 l 1
 415.418945312 780 155.418945312 435.837890625 155.418945312 439 c 0
334.418945312 0 m 1024
EndSplineSet
Validated: 524329
EndChar

StartChar: V
Encoding: 86 86 15
Width: 648
Flags: HW
LayerCount: 3
Fore
SplineSet
-153.225585938 784 m 1
 44.7744140625 782 l 1
 240.774414062 300 l 1
 240.774414062 300 424.774414062 778 424.774414062 780 c 0
 424.774414062 782 642.774414062 786 642.774414062 786 c 1
 538.774414062 744 l 1
 538.774414062 744 256.774414062 6 256.774414062 10 c 0
 256.774414062 14 -49.2255859375 726 -49.2255859375 726 c 1
 -153.225585938 784 l 1
EndSplineSet
Validated: 524321
EndChar

StartChar: Cacute
Encoding: 198 262 16
Width: 508
Flags: HW
LayerCount: 3
Fore
SplineSet
333 890 m 5
 415 890 l 5
 415 890 361 777 361 778 c 4
 361 779 269 778 269 778 c 5
 333 890 l 5
491 744 m 5
 503.184570312 732.768554688 488.065429688 542.861328125 489 540 c 4
 489.62109375 538.098632812 444.000165302 635.000118076 439 642 c 4
 430.6171875 653.735351562 198 648 177 636 c 5
 125.271484375 629.111328125 91.6689453125 137.720703125 158 126 c 5
 197 114 420.351579176 118.075147558 423 119 c 4
 440.408203125 125.079101563 481 221 481 221 c 5
 489 245 507.973632812 25.7236328125 488 11 c 5
 482 1 185.66015625 -0.076171875 142 16 c 5
 62.7158203125 40.548828125 43 112 40 132 c 5
 31.4462890625 139.780273438 0 396 30 496 c 5
 34 541 91 735 117 736 c 5
 137 742 445 769 491 744 c 5
EndSplineSet
Validated: 524321
EndChar

StartChar: k
Encoding: 107 107 17
Width: 344
Flags: HW
LayerCount: 3
Fore
SplineSet
11 459 m 1
 11 459 49 425 49 423 c 0
 49 421 55 33 55 33 c 1
 55 33 17 0 15 0 c 0
 13 0 154 2 154 0 c 0
 154 -2 112 41 112 41 c 5
 107 187 l 1
 107 187 220.000574918 5.00160947949 234 0 c 0
 237.766601562 -1.345703125 308 0 332 0 c 0
 340 0 263 51 263 51 c 1
 147 234 l 1
 236 333 l 1
 236 333 330 383 320 379 c 0
 312.122070312 375.848632812 189 372 189 372 c 1
 189 372 132 293 110 266 c 0
 102.633789062 256.959960938 104 425 104 425 c 1
 104 425 130 443 152 456 c 0
 156.870117188 458.877929688 59 461 11 459 c 1
EndSplineSet
Validated: 524325
EndChar

StartChar: v
Encoding: 118 118 18
Width: 491
Flags: HW
LayerCount: 3
Fore
SplineSet
0 340 m 1
 62 305 l 1
 62 305 216 1 233 3 c 0
 252.86328125 5.3369140625 408 307 408 307 c 1
 408 307 487 342 483 344 c 0
 479 346 364 343 364 343 c 1
 364 343 255 110 237 110 c 0
 221.768554688 110 108 339 104 339 c 0
 100 339 0 340 0 340 c 1
EndSplineSet
Validated: 524329
EndChar

StartChar: ccaron
Encoding: 232 269 19
Width: 322
Flags: HW
LayerCount: 3
Fore
SplineSet
87 508 m 1
 87 508 130 510 130 508 c 0
 130 506 156 440 156 440 c 1
 180 512 l 1
 180 512 228 512 230 511 c 4
 232 510 184 406 184 406 c 1
 127 408 l 1
 87 508 l 1
308 377 m 1
 305 400 44 398 29 381 c 1
 2 364 15.5703125 39.1142578125 32 18 c 1
 42.5234375 -16.498046875 298 -3 294 11 c 1
 304.46484375 44.8486328125 301 69 294 78 c 1
 289.908203125 91.8408203125 92 53 86 60 c 1
 62.7412109375 83.4677734375 62 317 78 316 c 1
 98.787109375 326.244140625 276.168945312 318 282 318 c 0
 288 318 308 377 308 377 c 1
EndSplineSet
Validated: 524329
EndChar

StartChar: cacute
Encoding: 230 263 20
Width: 322
Flags: HW
LayerCount: 3
Fore
SplineSet
178 555 m 5
 258 554 l 5
 258 554 199 430 199 428 c 4
 199 426 135 426 135 426 c 5
 178 555 l 5
308 377 m 5
 305 400 44 398 29 381 c 5
 2 364 15.5703125 39.1142578125 32 18 c 5
 42.5234375 -16.498046875 298 -3 294 11 c 5
 304.46484375 44.8486328125 301 69 294 78 c 5
 289.908203125 91.8408203125 92 53 86 60 c 5
 62.7412109375 83.4677734375 62 321 78 320 c 5
 98.787109375 330.244140625 276.168945312 318 282 318 c 4
 288 318 308 377 308 377 c 5
EndSplineSet
Validated: 524329
EndChar

StartChar: Scaron
Encoding: 169 352 21
Width: 524
Flags: HW
LayerCount: 3
Fore
SplineSet
130 941 m 5
 187 942 l 5
 234 843 l 5
 234 843 266 940 266 942 c 4
 266 944 328 942 328 942 c 21
 302.538461538 846 l 4
 288 792 l 13
 188 788 l 5
 130 941 l 5
428.515625 761 m 1
 431.946289062 768.233398438 64.3994140625 755.974609375 46.515625 730 c 0
 37.9716796875 717.590820312 24.4169921875 428.791015625 33.515625 448 c 1
 49.3564453125 426.930664062 279.515625 460 377.515625 447 c 1
 394.515625 370 399.515625 310 397.515625 268 c 1
 286.500976562 237.634765625 59.6708984375 203.654296875 35.515625 176 c 1
 20.2333984375 121.034179688 32.515625 65 41.515625 26 c 1
 98.9052734375 27.3798828125 520.515625 194 507.515625 205 c 1
 521.750976562 184.336914062 481.515625 536 463.515625 531 c 1
 458.573242188 550.206054688 149.541015625 529.436523438 133.515625 529 c 0
 122.307617188 528.694335938 123.754882812 636.232421875 141.515625 646 c 1
 279.979492188 650.813476562 476.515625 661 466.515625 672 c 1
 453.866210938 698.986328125 440.893554688 774.969726562 428.515625 761 c 1
EndSplineSet
Validated: 524325
EndChar

StartChar: Ccaron
Encoding: 200 268 22
Width: 508
Flags: HW
LayerCount: 3
Fore
SplineSet
175 939 m 1
 227 942 l 5
 227 942 259 847 263 851 c 0
 267 855 296 940 296 940 c 1
 350 942 l 25
 308 814 l 25
 216 814 l 1
 175 939 l 1
491 744 m 1
 503.184570312 732.768554688 488.065429688 542.861328125 489 540 c 0
 489.62109375 538.098632812 444.000165302 635.000118076 439 642 c 0
 430.6171875 653.735351562 198 648 177 636 c 1
 125.271484375 629.111328125 91.6689453125 137.720703125 158 126 c 1
 197 114 420.351579176 118.075147558 423 119 c 0
 440.408203125 125.079101563 481 221 481 221 c 1
 489 245 507.973632812 25.7236328125 488 11 c 1
 482 1 185.66015625 -0.076171875 142 16 c 1
 62.7158203125 40.548828125 43 112 40 132 c 1
 31.4462890625 139.780273438 0 396 30 496 c 1
 34 541 91 735 117 736 c 1
 137 742 445 769 491 744 c 1
EndSplineSet
Validated: 524321
EndChar

StartChar: scaron
Encoding: 185 353 23
Width: 351
Flags: HW
LayerCount: 3
Fore
SplineSet
98 560 m 1
 135 560 l 25
 156 496 l 1
 182 562 l 1
 225 562 l 5
 181 461 l 1
 124 461 l 25
 98 560 l 1
338 437 m 1
 312 441 55.8298611084 441.945997705 24 424 c 1
 13 409 12.0271214131 267.519644284 28 260 c 1
 95 239 181.533849666 241.881541473 247 216 c 1
 256 201 260.570162459 131.010624017 252 125 c 1
 248 112 42.3522741053 119.67485031 24 102 c 1
 21.2217771566 101.999636719 0.996751252218 30.3960092223 10 29 c 0
 11.6337802258 28.7466723039 328.058595776 49.8327698647 318 71 c 1
 320 117 319.20508733 249.882714408 305 263 c 1
 282.997795115 283.140618236 89 292 87 307 c 1
 87 373 l 1
 100.261446916 381.529504466 285 362 309 368 c 1
 323 366 348.134534947 427.461526862 338 437 c 1
EndSplineSet
Validated: 524329
EndChar

StartChar: Dcroat
Encoding: 208 272 24
Width: 562
Flags: HW
LayerCount: 3
Fore
SplineSet
143 107 m 1
 143 107 338.999793613 78.0005572512 420 108 c 0
 470.85546875 126.834960938 476 675 420 699 c 1
 393 736 171 743 160 696 c 1
 129 665 138 459 152 455 c 1
 190 457 l 1
 212 470 221 338 200 348 c 1
 206.249023438 344.159179688 174.345710961 345.328922631 144 344 c 0
 134.009765625 343.5625 107 91 143 107 c 1
55 458 m 1
 56.7724609375 561.11328125 42.4150390625 776.4609375 67 784 c 1
 80 797 514 812 508 778 c 1
 526.818359375 728.873046875 565 80 504 1 c 1
 466.087890625 -15.6865234375 54 4 58 17 c 1
 56.8349609375 125.533203125 61.546875 257.923828125 56 336 c 1
 41.4560546875 336.123046875 22.6884765625 332.021484375 15 339 c 1
 6 363 -8.0947265625 405.020507812 14 452 c 1
 20.9052734375 460.875976562 36.60546875 458.31640625 55 458 c 1
EndSplineSet
Validated: 524321
EndChar

StartChar: dcroat
Encoding: 240 273 25
Width: 382
Flags: HW
LayerCount: 3
Fore
SplineSet
141 223 m 1
 61 214 52.291015625 149.698242188 54 135 c 0
 64 49 146.360351562 39.1689453125 161 43 c 0
 268 71 233 164 231 168 c 1
 231 168 202 216 141 223 c 1
244 632 m 1
 316 634 l 5
 314 546 l 1
 314 546 371 544 371 546 c 0
 371 548 369 484 369 484 c 1
 369 484 315 482 313 484 c 0
 311 486 321 0 321 0 c 1
 260 0 l 1
 259 61 l 1
 246 34 245 22 218 1 c 1
 122 -13 106.883789062 4.291015625 103 6 c 0
 78 17 49 33 29 64 c 1
 9.7783203125 92.0166015625 5.916015625 127.352539062 9 166 c 1
 14.6005859375 192.38671875 19.9462890625 218.819335938 54 240 c 1
 61 247 132 266 146 266 c 0
 155.662109375 266 213.072265625 255.19921875 221 247 c 1
 236 239 247.92578125 211.022460938 248 215 c 0
 248.07421875 218.999023438 246 483 246 483 c 1
 186 484 l 1
 185 547 l 1
 185 547 217.98046875 546 244 546 c 0
 244 546 244 623 244 632 c 1
EndSplineSet
Validated: 524325
EndChar

StartChar: Zcaron
Encoding: 174 381 26
Width: 548
Flags: HW
LayerCount: 3
Fore
SplineSet
97 989 m 1
 183 991 l 1
 235 895 l 1
 235 895 261 983 261 985 c 0
 261 987 351 981 351 981 c 1
 302.538461538 846 l 0
 302.538085938 846 l 1
 167 847 l 1
 97 989 l 1
0 775 m 1
 485 779 l 1
 483.232421875 739.522460938 482.796875 664.470703125 483 669 c 1
 93 121 l 1
 93 121 521 119 523 119 c 0
 525 119 521 17 521 17 c 1
 521 17 0 9 0 15 c 4
 0 47 0 -68 0 155 c 0
 0 159 355 669 355 671 c 0
 355 673 0 664 0 672 c 0
 0 695 0 775 0 775 c 1
EndSplineSet
Validated: 524325
EndChar

StartChar: zcaron
Encoding: 190 382 27
Width: 346
Flags: HW
LayerCount: 3
Fore
SplineSet
64 489 m 1
 118 488 l 1
 157 415 l 1
 157 415 183 486 183 488 c 0
 183 490 240 491 240 491 c 1
 214 419 l 0
 201 377 l 1
 113 378 l 1
 64 489 l 1
6 350 m 5
 319 346 l 1
 317.232421875 306.522460938 314.796875 259.470703125 315 264 c 1
 116 65 l 1
 116 65 327 66 329 66 c 0
 331 66 330 0 330 0 c 1
 330 0 0 -5.99994413032 0 0 c 0
 0 31 0.1220703125 65.9990234375 0 62 c 0
 -0.1220703125 58.0009765625 239 279 239 281 c 0
 239 283 6 278 6 286 c 0
 6 309 6 350 6 350 c 5
EndSplineSet
Validated: 524325
EndChar
